<?xml version="1.0" standalone="no"?>
<!DOCTYPE svg PUBLIC "-//W3C//DTD SVG 20010904//EN"
 "http://www.w3.org/TR/2001/REC-SVG-20010904/DTD/svg10.dtd">
<svg version="1.0" xmlns="http://www.w3.org/2000/svg"
 width="200.000000pt" height="200.000000pt" viewBox="0 0 200.000000 200.000000"
 preserveAspectRatio="xMidYMid meet">
<metadata>
Created by potrace 1.11, written by Peter Selinger 2001-2013
</metadata>
<g transform="translate(0.000000,200.000000) scale(0.100000,-0.100000)"
fill="#000000" stroke="none">
<path d="M530 1793 c-30 -18 -54 -39 -52 -45 2 -6 20 -41 41 -77 22 -36 49
-84 61 -106 12 -22 44 -77 71 -122 34 -58 45 -84 36 -89 -7 -4 -21 -13 -32
-21 -20 -12 -27 -2 -135 187 -63 110 -118 200 -122 200 -6 0 -75 -39 -116 -65
-1 -1 46 -85 104 -186 151 -260 163 -281 176 -306 6 -13 15 -23 19 -23 4 0 32
14 63 32 l56 32 -19 31 -18 31 33 22 33 22 36 -64 35 -63 0 -481 0 -482 70 0
70 0 2 383 3 382 38 0 37 0 0 -382 0 -383 70 0 70 0 0 481 0 481 31 59 c18 32
35 59 40 59 14 0 59 -23 59 -30 0 -4 -7 -20 -15 -36 -13 -25 -12 -29 3 -39 36
-25 102 -58 105 -54 2 2 70 118 150 258 127 220 145 255 131 265 -27 20 -104
59 -108 55 -2 -2 -21 -35 -43 -74 -57 -100 -184 -320 -187 -322 -1 -1 -16 7
-34 19 l-32 20 20 33 c11 18 63 106 114 196 70 121 92 167 84 176 -6 7 -14 13
-19 13 -5 0 -27 11 -49 25 l-39 25 -34 -58 c-245 -420 -317 -551 -317 -578 0
-28 -2 -30 -40 -29 -37 0 -40 2 -40 29 0 19 -57 128 -171 325 -94 163 -174
299 -177 302 -4 4 -32 -9 -62 -28z m490 -718 c0 -29 -2 -31 -40 -30 -36 0 -40
2 -40 26 0 33 4 37 45 35 32 -1 35 -4 35 -31z"/>
</g>
</svg>
